<svg width="17" height="13" viewBox="0 0 17 13" fill="none" xmlns="http://www.w3.org/2000/svg">
<path fill-rule="evenodd" clip-rule="evenodd" d="M7.35408 4.35489C7.30764 4.40146 7.25246 4.4384 7.19172 4.46361C7.13097 4.48881 7.06585 4.50179 7.00008 4.50179C6.93432 4.50179 6.86919 4.48881 6.80845 4.46361C6.7477 4.4384 6.69253 4.40146 6.64608 4.35489L4.00008 1.70789L1.35408 4.35489C1.3076 4.40138 1.25241 4.43826 1.19167 4.46342C1.13093 4.48858 1.06583 4.50153 1.00008 4.50153C0.934339 4.50153 0.869239 4.48858 0.808499 4.46342C0.74776 4.43826 0.69257 4.40138 0.646083 4.35489C0.599595 4.30841 0.562718 4.25322 0.537559 4.19248C0.5124 4.13174 0.499451 4.06664 0.499451 4.00089C0.499451 3.93515 0.5124 3.87005 0.537559 3.80931C0.562718 3.74857 0.599595 3.69338 0.646083 3.64689L3.64608 0.646894C3.69253 0.60033 3.7477 0.563388 3.80845 0.538181C3.86919 0.512975 3.93432 0.5 4.00008 0.5C4.06585 0.5 4.13097 0.512975 4.19172 0.538181C4.25246 0.563388 4.30764 0.60033 4.35408 0.646894L7.35408 3.64689C7.40065 3.69334 7.43759 3.74851 7.4628 3.80926C7.488 3.87001 7.50098 3.93513 7.50098 4.00089C7.50098 4.06666 7.488 4.13178 7.4628 4.19253C7.43759 4.25327 7.40065 4.30845 7.35408 4.35489Z" fill="white"/>
<path fill-rule="evenodd" clip-rule="evenodd" d="M4 1C4.13261 1 4.25979 1.05268 4.35355 1.14645C4.44732 1.24021 4.5 1.36739 4.5 1.5L4.5 12C4.5 12.1326 4.44732 12.2598 4.35355 12.3536C4.25978 12.4473 4.13261 12.5 4 12.5C3.86739 12.5 3.74021 12.4473 3.64645 12.3536C3.55268 12.2598 3.5 12.1326 3.5 12L3.5 1.5C3.5 1.36739 3.55268 1.24021 3.64645 1.14645C3.74021 1.05268 3.86739 1 4 1Z" fill="white"/>
<g opacity="0.78">
<path fill-rule="evenodd" clip-rule="evenodd" d="M9.14689 9.14511C9.19334 9.09854 9.24851 9.0616 9.30926 9.03639C9.37001 9.01119 9.43513 8.99821 9.50089 8.99821C9.56666 8.99821 9.63178 9.01119 9.69253 9.03639C9.75327 9.0616 9.80845 9.09854 9.85489 9.14511L12.5009 11.7921L15.1469 9.14511C15.1934 9.09862 15.2486 9.06174 15.3093 9.03658C15.37 9.01142 15.4351 8.99847 15.5009 8.99847C15.5666 8.99847 15.6317 9.01142 15.6925 9.03658C15.7532 9.06174 15.8084 9.09862 15.8549 9.14511C15.9014 9.19159 15.9383 9.24678 15.9634 9.30752C15.9886 9.36826 16.0015 9.43336 16.0015 9.49911C16.0015 9.56485 15.9886 9.62995 15.9634 9.69069C15.9383 9.75143 15.9014 9.80662 15.8549 9.85311L12.8549 12.8531C12.8084 12.8997 12.7533 12.9366 12.6925 12.9618C12.6318 12.987 12.5667 13 12.5009 13C12.4351 13 12.37 12.987 12.3093 12.9618C12.2485 12.9366 12.1933 12.8997 12.1469 12.8531L9.14689 9.85311C9.10033 9.80666 9.06339 9.75149 9.03818 9.69074C9.01297 9.62999 9 9.56487 9 9.49911C9 9.43334 9.01297 9.36822 9.03818 9.30747C9.06339 9.24673 9.10033 9.19155 9.14689 9.14511Z" fill="white"/>
<path fill-rule="evenodd" clip-rule="evenodd" d="M12.501 12.4991C12.3684 12.4991 12.2412 12.4465 12.1474 12.3527C12.0537 12.2589 12.001 12.1318 12.001 11.9991L12.001 1.49915C12.001 1.36654 12.0537 1.23936 12.1474 1.14559C12.2412 1.05182 12.3684 0.999146 12.501 0.999146C12.6336 0.999146 12.7608 1.05182 12.8545 1.14559C12.9483 1.23936 13.001 1.36654 13.001 1.49915L13.001 11.9991C13.001 12.1318 12.9483 12.2589 12.8545 12.3527C12.7608 12.4465 12.6336 12.4991 12.501 12.4991Z" fill="white"/>
</g>
</svg>
