<svg width="1440" height="900" viewBox="0 0 1440 900" fill="none" xmlns="http://www.w3.org/2000/svg">
<g clip-path="url(#clip0)">
<rect width="1440" height="900" fill="#F6FBFF"/>
<circle cx="1191.5" cy="871.5" r="248.5" fill="url(#paint0_linear)"/>
<circle cx="-46.5" cy="217.5" r="248.5" fill="white"/>
<circle cx="1467.5" cy="778.5" r="248.5" fill="white"/>
<circle cx="136.5" cy="7.5" r="248.5" fill="url(#paint1_linear)"/>
<g opacity="0.1">
<rect x="218.976" y="491" width="8.08769" height="8.08769" fill="#00A6B0"/>
<rect x="218.976" y="779.459" width="8.08769" height="8.08769" fill="#00A6B0"/>
<rect x="218.976" y="532.192" width="8.08769" height="8.08769" fill="#00A6B0"/>
<rect x="218.976" y="820.651" width="8.08769" height="8.08769" fill="#00A6B0"/>
<rect x="218.976" y="573.375" width="8.08769" height="8.08769" fill="#00A6B0"/>
<rect x="218.976" y="861.833" width="8.08769" height="8.08769" fill="#00A6B0"/>
<rect x="218.976" y="614.564" width="8.08769" height="8.08769" fill="#00A6B0"/>
<rect x="218.976" y="655.749" width="8.08769" height="8.08769" fill="#00A6B0"/>
<rect x="218.976" y="696.934" width="8.08769" height="8.08769" fill="#00A6B0"/>
<rect x="218.976" y="738.126" width="8.08769" height="8.08769" fill="#00A6B0"/>
<rect x="13.1864" y="491" width="8.08769" height="8.08769" fill="#00A6B0"/>
<rect x="260.163" y="491" width="8.08769" height="8.08769" fill="#00A6B0"/>
<rect x="13.1864" y="779.459" width="8.08769" height="8.08769" fill="#00A6B0"/>
<rect x="260.163" y="779.459" width="8.08769" height="8.08769" fill="#00A6B0"/>
<rect x="13.1864" y="532.192" width="8.08769" height="8.08769" fill="#00A6B0"/>
<rect x="260.163" y="532.192" width="8.08769" height="8.08769" fill="#00A6B0"/>
<rect x="13.1864" y="820.651" width="8.08769" height="8.08769" fill="#00A6B0"/>
<rect x="260.163" y="820.651" width="8.08769" height="8.08769" fill="#00A6B0"/>
<rect x="13.1864" y="573.375" width="8.08769" height="8.08769" fill="#00A6B0"/>
<rect x="260.163" y="573.375" width="8.08769" height="8.08769" fill="#00A6B0"/>
<rect x="13.1864" y="861.833" width="8.08769" height="8.08769" fill="#00A6B0"/>
<rect x="260.163" y="861.833" width="8.08769" height="8.08769" fill="#00A6B0"/>
<rect x="13.1864" y="614.564" width="8.08769" height="8.08769" fill="#00A6B0"/>
<rect x="260.163" y="614.564" width="8.08769" height="8.08769" fill="#00A6B0"/>
<rect x="13.1864" y="655.749" width="8.08769" height="8.08769" fill="#00A6B0"/>
<rect x="260.163" y="655.749" width="8.08769" height="8.08769" fill="#00A6B0"/>
<rect x="13.1864" y="696.934" width="8.08769" height="8.08769" fill="#00A6B0"/>
<rect x="260.163" y="696.934" width="8.08769" height="8.08769" fill="#00A6B0"/>
<rect x="13.1864" y="738.126" width="8.08769" height="8.08769" fill="#00A6B0"/>
<rect x="260.163" y="738.126" width="8.08769" height="8.08769" fill="#00A6B0"/>
<rect x="54.3732" y="491" width="8.08769" height="8.08769" fill="#00A6B0"/>
<rect x="301.349" y="491" width="8.08769" height="8.08769" fill="#00A6B0"/>
<rect x="54.3732" y="779.459" width="8.08769" height="8.08769" fill="#00A6B0"/>
<rect x="301.349" y="779.459" width="8.08769" height="8.08769" fill="#00A6B0"/>
<rect x="54.3732" y="532.192" width="8.08769" height="8.08769" fill="#00A6B0"/>
<rect x="301.349" y="532.192" width="8.08769" height="8.08769" fill="#00A6B0"/>
<rect x="54.3732" y="820.651" width="8.08769" height="8.08769" fill="#00A6B0"/>
<rect x="301.349" y="820.651" width="8.08769" height="8.08769" fill="#00A6B0"/>
<rect x="54.3732" y="573.375" width="8.08769" height="8.08769" fill="#00A6B0"/>
<rect x="301.349" y="573.375" width="8.08769" height="8.08769" fill="#00A6B0"/>
<rect x="54.3732" y="861.833" width="8.08769" height="8.08769" fill="#00A6B0"/>
<rect x="301.349" y="861.833" width="8.08769" height="8.08769" fill="#00A6B0"/>
<rect x="54.3732" y="614.564" width="8.08769" height="8.08769" fill="#00A6B0"/>
<rect x="301.349" y="614.564" width="8.08769" height="8.08769" fill="#00A6B0"/>
<rect x="54.3732" y="655.749" width="8.08769" height="8.08769" fill="#00A6B0"/>
<rect x="301.349" y="655.749" width="8.08769" height="8.08769" fill="#00A6B0"/>
<rect x="54.3732" y="696.934" width="8.08769" height="8.08769" fill="#00A6B0"/>
<rect x="301.349" y="696.934" width="8.08769" height="8.08769" fill="#00A6B0"/>
<rect x="54.3732" y="738.126" width="8.08769" height="8.08769" fill="#00A6B0"/>
<rect x="301.349" y="738.126" width="8.08769" height="8.08769" fill="#00A6B0"/>
<rect x="95.5632" y="491" width="8.08769" height="8.08769" fill="#00A6B0"/>
<rect x="342.539" y="491" width="8.08769" height="8.08769" fill="#00A6B0"/>
<rect x="95.5632" y="779.459" width="8.08769" height="8.08769" fill="#00A6B0"/>
<rect x="342.539" y="779.459" width="8.08769" height="8.08769" fill="#00A6B0"/>
<rect x="95.5632" y="532.192" width="8.08769" height="8.08769" fill="#00A6B0"/>
<rect x="342.539" y="532.192" width="8.08769" height="8.08769" fill="#00A6B0"/>
<rect x="95.5632" y="820.651" width="8.08769" height="8.08769" fill="#00A6B0"/>
<rect x="342.539" y="820.651" width="8.08769" height="8.08769" fill="#00A6B0"/>
<rect x="95.5632" y="573.375" width="8.08769" height="8.08769" fill="#00A6B0"/>
<rect x="342.539" y="573.375" width="8.08769" height="8.08769" fill="#00A6B0"/>
<rect x="95.5632" y="861.833" width="8.08769" height="8.08769" fill="#00A6B0"/>
<rect x="342.539" y="861.833" width="8.08769" height="8.08769" fill="#00A6B0"/>
<rect x="95.5632" y="614.564" width="8.08769" height="8.08769" fill="#00A6B0"/>
<rect x="342.539" y="614.564" width="8.08769" height="8.08769" fill="#00A6B0"/>
<rect x="95.5632" y="655.749" width="8.08769" height="8.08769" fill="#00A6B0"/>
<rect x="342.539" y="655.749" width="8.08769" height="8.08769" fill="#00A6B0"/>
<rect x="95.5632" y="696.934" width="8.08769" height="8.08769" fill="#00A6B0"/>
<rect x="342.539" y="696.934" width="8.08769" height="8.08769" fill="#00A6B0"/>
<rect x="95.5632" y="738.126" width="8.08769" height="8.08769" fill="#00A6B0"/>
<rect x="342.539" y="738.126" width="8.08769" height="8.08769" fill="#00A6B0"/>
<rect x="136.75" y="491" width="8.08769" height="8.08769" fill="#00A6B0"/>
<rect x="383.726" y="491" width="8.08769" height="8.08769" fill="#00A6B0"/>
<rect x="136.75" y="779.459" width="8.08769" height="8.08769" fill="#00A6B0"/>
<rect x="383.726" y="779.459" width="8.08769" height="8.08769" fill="#00A6B0"/>
<rect x="136.75" y="532.192" width="8.08769" height="8.08769" fill="#00A6B0"/>
<rect x="383.726" y="532.192" width="8.08769" height="8.08769" fill="#00A6B0"/>
<rect x="136.75" y="820.651" width="8.08769" height="8.08769" fill="#00A6B0"/>
<rect x="383.726" y="820.651" width="8.08769" height="8.08769" fill="#00A6B0"/>
<rect x="136.75" y="573.375" width="8.08769" height="8.08769" fill="#00A6B0"/>
<rect x="383.726" y="573.375" width="8.08769" height="8.08769" fill="#00A6B0"/>
<rect x="136.75" y="861.833" width="8.08769" height="8.08769" fill="#00A6B0"/>
<rect x="383.726" y="861.833" width="8.08769" height="8.08769" fill="#00A6B0"/>
<rect x="136.75" y="614.564" width="8.08769" height="8.08769" fill="#00A6B0"/>
<rect x="383.726" y="614.564" width="8.08769" height="8.08769" fill="#00A6B0"/>
<rect x="136.75" y="655.749" width="8.08769" height="8.08769" fill="#00A6B0"/>
<rect x="383.726" y="655.749" width="8.08769" height="8.08769" fill="#00A6B0"/>
<rect x="136.75" y="696.934" width="8.08769" height="8.08769" fill="#00A6B0"/>
<rect x="383.726" y="696.934" width="8.08769" height="8.08769" fill="#00A6B0"/>
<rect x="136.75" y="738.126" width="8.08769" height="8.08769" fill="#00A6B0"/>
<rect x="383.726" y="738.126" width="8.08769" height="8.08769" fill="#00A6B0"/>
<rect x="177.937" y="491" width="8.08769" height="8.08769" fill="#00A6B0"/>
<rect x="424.912" y="491" width="8.08769" height="8.08769" fill="#00A6B0"/>
<rect x="177.937" y="779.459" width="8.08769" height="8.08769" fill="#00A6B0"/>
<rect x="424.912" y="779.459" width="8.08769" height="8.08769" fill="#00A6B0"/>
<rect x="177.937" y="532.192" width="8.08769" height="8.08769" fill="#00A6B0"/>
<rect x="424.912" y="532.192" width="8.08769" height="8.08769" fill="#00A6B0"/>
<rect x="177.937" y="820.651" width="8.08769" height="8.08769" fill="#00A6B0"/>
<rect x="424.912" y="820.651" width="8.08769" height="8.08769" fill="#00A6B0"/>
<rect x="177.937" y="573.375" width="8.08769" height="8.08769" fill="#00A6B0"/>
<rect x="424.912" y="573.375" width="8.08769" height="8.08769" fill="#00A6B0"/>
<rect x="177.937" y="861.833" width="8.08769" height="8.08769" fill="#00A6B0"/>
<rect x="424.912" y="861.833" width="8.08769" height="8.08769" fill="#00A6B0"/>
<rect x="177.937" y="614.564" width="8.08769" height="8.08769" fill="#00A6B0"/>
<rect x="424.912" y="614.564" width="8.08769" height="8.08769" fill="#00A6B0"/>
<rect x="177.937" y="655.749" width="8.08769" height="8.08769" fill="#00A6B0"/>
<rect x="424.912" y="655.749" width="8.08769" height="8.08769" fill="#00A6B0"/>
<rect x="177.937" y="696.934" width="8.08769" height="8.08769" fill="#00A6B0"/>
<rect x="424.912" y="696.934" width="8.08769" height="8.08769" fill="#00A6B0"/>
<rect x="177.937" y="738.126" width="8.08769" height="8.08769" fill="#00A6B0"/>
<rect x="424.912" y="738.126" width="8.08769" height="8.08769" fill="#00A6B0"/>
</g>
<g opacity="0.1">
<rect x="1054" y="246.459" width="8.08769" height="8.08769" fill="#00A6B0"/>
<rect x="1300.98" y="246.459" width="8.08769" height="8.08769" fill="#00A6B0"/>
<rect x="1054" y="-0.808228" width="8.08769" height="8.08769" fill="#00A6B0"/>
<rect x="1300.98" y="-0.808228" width="8.08769" height="8.08769" fill="#00A6B0"/>
<rect x="1054" y="287.651" width="8.08769" height="8.08769" fill="#00A6B0"/>
<rect x="1300.98" y="287.651" width="8.08769" height="8.08769" fill="#00A6B0"/>
<rect x="1054" y="40.3745" width="8.08769" height="8.08769" fill="#00A6B0"/>
<rect x="1300.98" y="40.3745" width="8.08769" height="8.08769" fill="#00A6B0"/>
<rect x="1054" y="328.833" width="8.08769" height="8.08769" fill="#00A6B0"/>
<rect x="1300.98" y="328.833" width="8.08769" height="8.08769" fill="#00A6B0"/>
<rect x="1054" y="81.5641" width="8.08769" height="8.08769" fill="#00A6B0"/>
<rect x="1300.98" y="81.5641" width="8.08769" height="8.08769" fill="#00A6B0"/>
<rect x="1054" y="370.023" width="8.08769" height="8.08769" fill="#00A6B0"/>
<rect x="1300.98" y="370.023" width="8.08769" height="8.08769" fill="#00A6B0"/>
<rect x="1054" y="122.749" width="8.08769" height="8.08769" fill="#00A6B0"/>
<rect x="1300.98" y="122.749" width="8.08769" height="8.08769" fill="#00A6B0"/>
<rect x="1054" y="411.212" width="8.08769" height="8.08769" fill="#00A6B0"/>
<rect x="1300.98" y="411.212" width="8.08769" height="8.08769" fill="#00A6B0"/>
<rect x="1054" y="163.934" width="8.08769" height="8.08769" fill="#00A6B0"/>
<rect x="1300.98" y="163.934" width="8.08769" height="8.08769" fill="#00A6B0"/>
<rect x="1054" y="452.393" width="8.08769" height="8.08769" fill="#00A6B0"/>
<rect x="1300.98" y="452.393" width="8.08769" height="8.08769" fill="#00A6B0"/>
<rect x="1054" y="205.126" width="8.08769" height="8.08769" fill="#00A6B0"/>
<rect x="1300.98" y="205.126" width="8.08769" height="8.08769" fill="#00A6B0"/>
<rect x="1054" y="493.587" width="8.08769" height="8.08769" fill="#00A6B0"/>
<rect x="1300.98" y="493.587" width="8.08769" height="8.08769" fill="#00A6B0"/>
<rect x="1095.19" y="246.459" width="8.08769" height="8.08769" fill="#00A6B0"/>
<rect x="1342.16" y="246.459" width="8.08769" height="8.08769" fill="#00A6B0"/>
<rect x="1095.19" y="-0.808228" width="8.08769" height="8.08769" fill="#00A6B0"/>
<rect x="1342.16" y="-0.808228" width="8.08769" height="8.08769" fill="#00A6B0"/>
<rect x="1095.19" y="287.651" width="8.08769" height="8.08769" fill="#00A6B0"/>
<rect x="1342.16" y="287.651" width="8.08769" height="8.08769" fill="#00A6B0"/>
<rect x="1095.19" y="40.3745" width="8.08769" height="8.08769" fill="#00A6B0"/>
<rect x="1342.16" y="40.3745" width="8.08769" height="8.08769" fill="#00A6B0"/>
<rect x="1095.19" y="328.833" width="8.08769" height="8.08769" fill="#00A6B0"/>
<rect x="1342.16" y="328.833" width="8.08769" height="8.08769" fill="#00A6B0"/>
<rect x="1095.19" y="81.5641" width="8.08769" height="8.08769" fill="#00A6B0"/>
<rect x="1342.16" y="81.5641" width="8.08769" height="8.08769" fill="#00A6B0"/>
<rect x="1095.19" y="370.023" width="8.08769" height="8.08769" fill="#00A6B0"/>
<rect x="1342.16" y="370.023" width="8.08769" height="8.08769" fill="#00A6B0"/>
<rect x="1095.19" y="122.749" width="8.08769" height="8.08769" fill="#00A6B0"/>
<rect x="1342.16" y="122.749" width="8.08769" height="8.08769" fill="#00A6B0"/>
<rect x="1095.19" y="411.212" width="8.08769" height="8.08769" fill="#00A6B0"/>
<rect x="1342.16" y="411.212" width="8.08769" height="8.08769" fill="#00A6B0"/>
<rect x="1095.19" y="163.934" width="8.08769" height="8.08769" fill="#00A6B0"/>
<rect x="1342.16" y="163.934" width="8.08769" height="8.08769" fill="#00A6B0"/>
<rect x="1095.19" y="452.393" width="8.08769" height="8.08769" fill="#00A6B0"/>
<rect x="1342.16" y="452.393" width="8.08769" height="8.08769" fill="#00A6B0"/>
<rect x="1095.19" y="205.126" width="8.08769" height="8.08769" fill="#00A6B0"/>
<rect x="1342.16" y="205.126" width="8.08769" height="8.08769" fill="#00A6B0"/>
<rect x="1095.19" y="493.587" width="8.08769" height="8.08769" fill="#00A6B0"/>
<rect x="1342.16" y="493.587" width="8.08769" height="8.08769" fill="#00A6B0"/>
<rect x="1136.37" y="246.459" width="8.08769" height="8.08769" fill="#00A6B0"/>
<rect x="1383.35" y="246.459" width="8.08769" height="8.08769" fill="#00A6B0"/>
<rect x="1136.37" y="-0.808228" width="8.08769" height="8.08769" fill="#00A6B0"/>
<rect x="1383.35" y="-0.808228" width="8.08769" height="8.08769" fill="#00A6B0"/>
<rect x="1136.37" y="287.651" width="8.08769" height="8.08769" fill="#00A6B0"/>
<rect x="1383.35" y="287.651" width="8.08769" height="8.08769" fill="#00A6B0"/>
<rect x="1136.37" y="40.3745" width="8.08769" height="8.08769" fill="#00A6B0"/>
<rect x="1383.35" y="40.3745" width="8.08769" height="8.08769" fill="#00A6B0"/>
<rect x="1136.37" y="328.833" width="8.08769" height="8.08769" fill="#00A6B0"/>
<rect x="1383.35" y="328.833" width="8.08769" height="8.08769" fill="#00A6B0"/>
<rect x="1136.37" y="81.5641" width="8.08769" height="8.08769" fill="#00A6B0"/>
<rect x="1383.35" y="81.5641" width="8.08769" height="8.08769" fill="#00A6B0"/>
<rect x="1136.37" y="370.023" width="8.08769" height="8.08769" fill="#00A6B0"/>
<rect x="1383.35" y="370.023" width="8.08769" height="8.08769" fill="#00A6B0"/>
<rect x="1136.37" y="122.749" width="8.08769" height="8.08769" fill="#00A6B0"/>
<rect x="1383.35" y="122.749" width="8.08769" height="8.08769" fill="#00A6B0"/>
<rect x="1136.37" y="411.212" width="8.08769" height="8.08769" fill="#00A6B0"/>
<rect x="1383.35" y="411.212" width="8.08769" height="8.08769" fill="#00A6B0"/>
<rect x="1136.37" y="163.934" width="8.08769" height="8.08769" fill="#00A6B0"/>
<rect x="1383.35" y="163.934" width="8.08769" height="8.08769" fill="#00A6B0"/>
<rect x="1136.37" y="452.393" width="8.08769" height="8.08769" fill="#00A6B0"/>
<rect x="1383.35" y="452.393" width="8.08769" height="8.08769" fill="#00A6B0"/>
<rect x="1136.37" y="205.126" width="8.08769" height="8.08769" fill="#00A6B0"/>
<rect x="1383.35" y="205.126" width="8.08769" height="8.08769" fill="#00A6B0"/>
<rect x="1136.37" y="493.587" width="8.08769" height="8.08769" fill="#00A6B0"/>
<rect x="1383.35" y="493.587" width="8.08769" height="8.08769" fill="#00A6B0"/>
<rect x="1177.56" y="246.459" width="8.08769" height="8.08769" fill="#00A6B0"/>
<rect x="1424.54" y="246.459" width="8.08769" height="8.08769" fill="#00A6B0"/>
<rect x="1177.56" y="-0.808228" width="8.08769" height="8.08769" fill="#00A6B0"/>
<rect x="1424.54" y="-0.808228" width="8.08769" height="8.08769" fill="#00A6B0"/>
<rect x="1177.56" y="287.651" width="8.08769" height="8.08769" fill="#00A6B0"/>
<rect x="1424.54" y="287.651" width="8.08769" height="8.08769" fill="#00A6B0"/>
<rect x="1177.56" y="40.3745" width="8.08769" height="8.08769" fill="#00A6B0"/>
<rect x="1424.54" y="40.3745" width="8.08769" height="8.08769" fill="#00A6B0"/>
<rect x="1177.56" y="328.833" width="8.08769" height="8.08769" fill="#00A6B0"/>
<rect x="1424.54" y="328.833" width="8.08769" height="8.08769" fill="#00A6B0"/>
<rect x="1177.56" y="81.5641" width="8.08769" height="8.08769" fill="#00A6B0"/>
<rect x="1424.54" y="81.5641" width="8.08769" height="8.08769" fill="#00A6B0"/>
<rect x="1177.56" y="370.023" width="8.08769" height="8.08769" fill="#00A6B0"/>
<rect x="1424.54" y="370.023" width="8.08769" height="8.08769" fill="#00A6B0"/>
<rect x="1177.56" y="122.749" width="8.08769" height="8.08769" fill="#00A6B0"/>
<rect x="1424.54" y="122.749" width="8.08769" height="8.08769" fill="#00A6B0"/>
<rect x="1177.56" y="411.212" width="8.08769" height="8.08769" fill="#00A6B0"/>
<rect x="1424.54" y="411.212" width="8.08769" height="8.08769" fill="#00A6B0"/>
<rect x="1177.56" y="163.934" width="8.08769" height="8.08769" fill="#00A6B0"/>
<rect x="1424.54" y="163.934" width="8.08769" height="8.08769" fill="#00A6B0"/>
<rect x="1177.56" y="452.393" width="8.08769" height="8.08769" fill="#00A6B0"/>
<rect x="1424.54" y="452.393" width="8.08769" height="8.08769" fill="#00A6B0"/>
<rect x="1177.56" y="205.126" width="8.08769" height="8.08769" fill="#00A6B0"/>
<rect x="1424.54" y="205.126" width="8.08769" height="8.08769" fill="#00A6B0"/>
<rect x="1177.56" y="493.587" width="8.08769" height="8.08769" fill="#00A6B0"/>
<rect x="1424.54" y="493.587" width="8.08769" height="8.08769" fill="#00A6B0"/>
<rect x="1218.75" y="246.459" width="8.08769" height="8.08769" fill="#00A6B0"/>
<rect x="1218.75" y="-0.808228" width="8.08769" height="8.08769" fill="#00A6B0"/>
<rect x="1218.75" y="287.651" width="8.08769" height="8.08769" fill="#00A6B0"/>
<rect x="1218.75" y="40.3745" width="8.08769" height="8.08769" fill="#00A6B0"/>
<rect x="1218.75" y="328.833" width="8.08769" height="8.08769" fill="#00A6B0"/>
<rect x="1218.75" y="81.5641" width="8.08769" height="8.08769" fill="#00A6B0"/>
<rect x="1218.75" y="370.023" width="8.08769" height="8.08769" fill="#00A6B0"/>
<rect x="1218.75" y="122.749" width="8.08769" height="8.08769" fill="#00A6B0"/>
<rect x="1218.75" y="411.212" width="8.08769" height="8.08769" fill="#00A6B0"/>
<rect x="1218.75" y="163.934" width="8.08769" height="8.08769" fill="#00A6B0"/>
<rect x="1218.75" y="452.393" width="8.08769" height="8.08769" fill="#00A6B0"/>
<rect x="1218.75" y="205.126" width="8.08769" height="8.08769" fill="#00A6B0"/>
<rect x="1218.75" y="493.587" width="8.08769" height="8.08769" fill="#00A6B0"/>
<rect x="1259.94" y="246.459" width="8.08769" height="8.08769" fill="#00A6B0"/>
<rect x="1259.94" y="-0.808228" width="8.08769" height="8.08769" fill="#00A6B0"/>
<rect x="1259.94" y="287.651" width="8.08769" height="8.08769" fill="#00A6B0"/>
<rect x="1259.94" y="40.3745" width="8.08769" height="8.08769" fill="#00A6B0"/>
<rect x="1259.94" y="328.833" width="8.08769" height="8.08769" fill="#00A6B0"/>
<rect x="1259.94" y="81.5641" width="8.08769" height="8.08769" fill="#00A6B0"/>
<rect x="1259.94" y="370.023" width="8.08769" height="8.08769" fill="#00A6B0"/>
<rect x="1259.94" y="122.749" width="8.08769" height="8.08769" fill="#00A6B0"/>
<rect x="1259.94" y="411.212" width="8.08769" height="8.08769" fill="#00A6B0"/>
<rect x="1259.94" y="163.934" width="8.08769" height="8.08769" fill="#00A6B0"/>
<rect x="1259.94" y="452.393" width="8.08769" height="8.08769" fill="#00A6B0"/>
<rect x="1259.94" y="205.126" width="8.08769" height="8.08769" fill="#00A6B0"/>
<rect x="1259.94" y="493.587" width="8.08769" height="8.08769" fill="#00A6B0"/>
</g>
</g>
<defs>
<linearGradient id="paint0_linear" x1="1003" y1="535.5" x2="1227" y2="1295" gradientUnits="userSpaceOnUse">
<stop stop-color="#00A6B0"/>
<stop offset="0.767634" stop-color="#00A6B0" stop-opacity="0"/>
<stop offset="1" stop-color="#00A6B0" stop-opacity="0"/>
</linearGradient>
<linearGradient id="paint1_linear" x1="326.5" y1="256" x2="-112" y2="-334" gradientUnits="userSpaceOnUse">
<stop stop-color="#00A6B0"/>
<stop offset="1" stop-color="#00A6B0" stop-opacity="0"/>
</linearGradient>
<clipPath id="clip0">
<rect width="1440" height="900" fill="white"/>
</clipPath>
</defs>
</svg>
