<svg width="18" height="18" viewBox="0 0 18 18" fill="none" xmlns="http://www.w3.org/2000/svg">
<path d="M10.1816 3.71219H1.96937C0.886214 3.71219 0 4.5984 0 5.68155V12.3183C0 13.4015 0.886214 14.2877 1.96937 14.2877H10.1816C11.2648 14.2877 12.151 13.4015 12.151 12.3183V5.68155C12.151 4.57871 11.2648 3.71219 10.1816 3.71219Z" fill="#193234"/>
<path d="M16.5427 4.79558C16.4246 4.81527 16.3064 4.87435 16.2079 4.93343L13.1357 6.70586V11.2748L16.2276 13.0472C16.7988 13.382 17.5077 13.1851 17.8425 12.614C17.941 12.4367 18.0001 12.2398 18.0001 12.0231V5.93781C18.0001 5.20914 17.3108 4.61833 16.5427 4.79558Z" fill="#193234"/>
</svg>
