<svg width="13" height="13" viewBox="0 0 13 13" fill="none" xmlns="http://www.w3.org/2000/svg">
<path d="M6.63 5.57104V7.8H10.3166C10.1676 8.75604 9.20292 10.6026 6.63 10.6026C4.41188 10.6026 2.60055 8.76688 2.60055 6.5C2.60055 4.23313 4.41242 2.39742 6.63 2.39742C7.89209 2.39742 8.73763 2.93313 9.22188 3.39896L10.9845 1.69921C9.85238 0.642417 8.38446 0 6.63 0C3.03605 0 0.130005 2.90604 0.130005 6.5C0.130005 10.094 3.03605 13 6.63 13C10.3816 13 12.87 10.3626 12.87 6.64842C12.87 6.22158 12.824 5.8955 12.7676 5.57104H6.63Z" fill="white"/>
</svg>
