<svg width="24" height="24" viewBox="0 0 24 24" fill="none" xmlns="http://www.w3.org/2000/svg">
<g clip-path="url(#clip0)">
<path d="M4 6.75C4 4.131 6.131 2 8.75 2H17.883C17.554 0.849 16.505 0 15.25 0H3.75C2.233 0 1 1.233 1 2.75V18.25C1 19.767 2.233 21 3.75 21H4V6.75Z" fill="#193234"/>
<path d="M20.25 3.99951H8.75C7.233 3.99951 6 5.23251 6 6.74951V21.2495C6 22.7665 7.233 23.9995 8.75 23.9995H20.25C21.767 23.9995 23 22.7665 23 21.2495V6.74951C23 5.23251 21.767 3.99951 20.25 3.99951ZM18.25 20.9995H10.75C10.336 20.9995 10 20.6635 10 20.2495C10 19.8355 10.336 19.4995 10.75 19.4995H18.25C18.664 19.4995 19 19.8355 19 20.2495C19 20.6635 18.664 20.9995 18.25 20.9995ZM18.25 16.9995H10.75C10.336 16.9995 10 16.6635 10 16.2495C10 15.8355 10.336 15.4995 10.75 15.4995H18.25C18.664 15.4995 19 15.8355 19 16.2495C19 16.6635 18.664 16.9995 18.25 16.9995ZM18.25 13.4995H10.75C10.336 13.4995 10 13.1635 10 12.7495C10 12.3355 10.336 11.9995 10.75 11.9995H18.25C18.664 11.9995 19 12.3355 19 12.7495C19 13.1635 18.664 13.4995 18.25 13.4995ZM18.25 9.49951H10.75C10.336 9.49951 10 9.16351 10 8.74951C10 8.33551 10.336 7.99951 10.75 7.99951H18.25C18.664 7.99951 19 8.33551 19 8.74951C19 9.16351 18.664 9.49951 18.25 9.49951Z" fill="#193234"/>
</g>
<defs>
<clipPath id="clip0">
<rect width="24" height="24" fill="white"/>
</clipPath>
</defs>
</svg>
